<svg fill-rule="evenodd" height="297mm" preserveAspectRatio="xMidYMid" stroke-linejoin="round" stroke-width="28.222" viewBox="0 0 21000 29700" width="210mm" xmlns="http://www.w3.org/2000/svg" xmlns:xlink="http://www.w3.org/1999/xlink"><clipPath id="a"><path d="m0 0h21000v29700h-21000z"/></clipPath><g clip-path="url(#a)"><path d="m-119-119h257v257h-257z" fill="none"/><path d="m136 9v6l-1 7v6l-2 6-1 7-2 6-2 6-2 6-3 5-3 6-3 6-3 5-4 5-4 5-4 5-5 4-4 5-5 4-5 3-6 4-5 3-6 3-5 3-6 3-6 2-6 1-7 2-6 1-6 1-7 1h-6-6-7l-6-1-6-1-6-1-7-2-6-2-6-2-5-3-6-3-6-3-5-3-5-4-5-4-5-4-5-4-4-5-4-5-4-5-4-5-3-5-3-6-3-6-3-5-2-6-2-6-2-7-1-6-1-6-1-6v-7-6-6l1-7 1-6 1-6 2-7 1-6 2-6 3-6 3-5 3-6 3-5 4-6 3-5 4-5 5-4 4-5 5-4 5-4 5-4 5-3 6-3 6-3 5-3 6-2 6-2 6-2 7-1 6-2h6l7-1h6v127z" fill="#729fcf"/><path d="m136 9v6l-1 7v6l-2 6-1 7-2 6-2 6-2 6-3 5-3 6-3 6-3 5-4 5-4 5-4 5-5 4-4 5-5 4-5 3-6 4-5 3-6 3-5 3-6 3-6 2-6 1-7 2-6 1-6 1-7 1h-6-6-7l-6-1-6-1-6-1-7-2-6-2-6-2-5-3-6-3-6-3-5-3-5-4-5-4-5-4-5-4-4-5-4-5-4-5-4-5-3-5-3-6-3-6-3-5-2-6-2-6-2-7-1-6-1-6-1-6v-7-6-6l1-7 1-6 1-6 2-7 1-6 2-6 3-6 3-5 3-6 3-5 4-6 3-5 4-5 5-4 4-5 5-4 5-4 5-4 5-3 6-3 6-3 5-3 6-2 6-2 6-2 7-1 6-2h6l7-1h6v127z" fill="none" stroke="#3465a4"/></g></svg>