<svg fill-rule="evenodd" height="47.87mm" preserveAspectRatio="xMidYMid" stroke-linejoin="round" stroke-width="28.222" viewBox="0 0 4488 4787" width="44.88mm" xmlns="http://www.w3.org/2000/svg" xmlns:xlink="http://www.w3.org/1999/xlink"><clipPath id="a"><path d="m0 0h4488v4787h-4488z"/></clipPath><clipPath id="b"><path d="m61 61h-127v-127h127z"/></clipPath><g clip-path="url(#a)"><path d="m-67-66h129v129h-129z" fill="none"/><g clip-path="url(#b)"><path d="m61-29c0 1 0 2-1 3 0 3-1 5-1 7 0 0 0 1-1 1 0-3-1-5-2-7-1-6-5-11-11-15-6-3-12-6-18-9 0 0 0 0-1 0h7c6 0 12 1 17 2 4 1 7 3 9 6 1 2 2 4 2 6v1z" fill="#d91d52"/><path d="m-1 61c-1-1-2-3-3-4-5-10-10-21-13-32-2-5-3-10-4-16 0-4 0-9 0-13 0-11 3-21 8-31 3-7 7-13 11-19 1 0 1 0 1-1 1 2 2 3 3 5 7 9 12 18 14 28l3 12v13c0 8-2 17-5 25-3 11-8 22-15 32z" fill="#e9498a"/><path d="m45 23c-8-2-14-5-17-12-2-3-2-6-1-9 0-5 1-9 2-13 1-7 0-13-4-18-1-4-4-8-7-11 0 0-1 0-1-1 1 1 2 1 3 1 7 1 13 3 19 7 5 4 9 9 10 15 2 5 1 10-2 15-1 3-3 5-4 8s-2 5-2 8 1 5 3 8c0 1 0 1 1 2z" fill="#e53e7a"/><path d="m-47 23c1-1 1-1 1-2 2-3 3-6 3-9s-1-5-3-8c-1-2-2-5-4-8-1-3-2-6-2-9 0-7 3-13 8-18 6-5 13-7 21-9 1 0 2 0 3-1h1c-1 1-2 2-2 3-5 5-9 12-10 19-1 3 0 7 0 10 1 4 2 7 2 11 1 7-1 12-7 16-3 3-6 4-10 5 0 0 0 0-1 0z" fill="#e53e7a"/><path d="m-64-18c0-3-1-6-2-9 0-3 0-7 1-10 1-5 3-8 8-9 3-2 7-2 11-3h15c-2 1-3 1-4 2-5 2-9 4-14 7-7 4-11 9-13 16 0 2-1 4-1 6z" fill="#d91d52"/><g fill="#af1f36"><path d="m-12-57c-3 1-6 1-9 2-5 1-9-1-12-5-1-2-2-5-2-6 6 5 14 7 22 9z"/><path d="m30-65c-1 3-2 6-5 8-2 3-6 4-9 3s-6-1-8-2h-1c8-2 16-4 23-9z"/></g></g></g></svg>